<?xml version="1.0" encoding="UTF-8" standalone="no"?>
<!DOCTYPE svg PUBLIC "-//W3C//DTD SVG 1.1//EN"
 "http://www.w3.org/Graphics/SVG/1.1/DTD/svg11.dtd">
<!-- Generated by graphviz version 2.40.1 (20161225.0304)
 -->
<!-- Title: state transitions Pages: 1 -->
<svg width="320pt" height="352pt"
 viewBox="0.00 0.00 320.00 352.00" xmlns="http://www.w3.org/2000/svg" xmlns:xlink="http://www.w3.org/1999/xlink">
<g id="graph0" class="graph" transform="scale(1 1) rotate(0) translate(4 348)">
<title>state transitions</title>
<polygon fill="#ffffff" stroke="transparent" points="-4,4 -4,-348 316,-348 316,4 -4,4"/>
<g id="clust1" class="cluster state regular">
<title>cluster_state_next</title>
<path fill="none" stroke="#000000" stroke-width="2" d="M20,-8C20,-8 292,-8 292,-8 298,-8 304,-14 304,-20 304,-20 304,-324 304,-324 304,-330 298,-336 292,-336 292,-336 20,-336 20,-336 14,-336 8,-330 8,-324 8,-324 8,-20 8,-20 8,-14 14,-8 20,-8"/>
<text text-anchor="start" x="128.8208" y="-317.2" font-family="Helvetica,sans-Serif" font-size="12.00" fill="#000000">state_next</text>
</g>
<!-- state_next -->
<!-- IDLE -->
<g id="node2" class="node state regular">
<title>IDLE</title>
<polygon fill="#ffffff" fill-opacity="0.003922" stroke="transparent" stroke-width="2" points="160,-298 104,-298 104,-262 160,-262 160,-298"/>
<text text-anchor="start" x="118.6644" y="-276.2" font-family="Helvetica,sans-Serif" font-size="12.00" fill="#000000">IDLE</text>
<path fill="none" stroke="#000000" stroke-width="2" d="M116.3333,-263C116.3333,-263 147.6667,-263 147.6667,-263 153.3333,-263 159,-268.6667 159,-274.3333 159,-274.3333 159,-285.6667 159,-285.6667 159,-291.3333 153.3333,-297 147.6667,-297 147.6667,-297 116.3333,-297 116.3333,-297 110.6667,-297 105,-291.3333 105,-285.6667 105,-285.6667 105,-274.3333 105,-274.3333 105,-268.6667 110.6667,-263 116.3333,-263"/>
</g>
<!-- TRG -->
<g id="node3" class="node state regular">
<title>TRG</title>
<polygon fill="#ffffff" fill-opacity="0.003922" stroke="transparent" stroke-width="2" points="98,-216 42,-216 42,-180 98,-180 98,-216"/>
<text text-anchor="start" x="57.3358" y="-194.2" font-family="Helvetica,sans-Serif" font-size="12.00" fill="#000000">TRG</text>
<path fill="none" stroke="#000000" stroke-width="2" d="M54.3333,-181C54.3333,-181 85.6667,-181 85.6667,-181 91.3333,-181 97,-186.6667 97,-192.3333 97,-192.3333 97,-203.6667 97,-203.6667 97,-209.3333 91.3333,-215 85.6667,-215 85.6667,-215 54.3333,-215 54.3333,-215 48.6667,-215 43,-209.3333 43,-203.6667 43,-203.6667 43,-192.3333 43,-192.3333 43,-186.6667 48.6667,-181 54.3333,-181"/>
</g>
<!-- IDLE&#45;&gt;TRG -->
<g id="edge1" class="edge transition">
<title>IDLE&#45;&gt;TRG</title>
<path fill="none" stroke="#000000" d="M118.2402,-261.8015C109.8922,-250.7606 99.0985,-236.4851 89.8383,-224.2378"/>
<polygon fill="#000000" stroke="#000000" points="92.5443,-222.0133 83.7213,-216.1476 86.9607,-226.2351 92.5443,-222.0133"/>
<text text-anchor="start" x="105" y="-236" font-family="Helvetica,sans-Serif" font-size="10.00" fill="#000000">run_i == &#39;b1 &#160;&#160;</text>
</g>
<!-- TX -->
<g id="node4" class="node state regular">
<title>TX</title>
<polygon fill="#ffffff" fill-opacity="0.003922" stroke="transparent" stroke-width="2" points="141,-134 85,-134 85,-98 141,-98 141,-134"/>
<text text-anchor="start" x="105.3332" y="-112.2" font-family="Helvetica,sans-Serif" font-size="12.00" fill="#000000">TX</text>
<path fill="none" stroke="#000000" stroke-width="2" d="M97.3333,-99C97.3333,-99 128.6667,-99 128.6667,-99 134.3333,-99 140,-104.6667 140,-110.3333 140,-110.3333 140,-121.6667 140,-121.6667 140,-127.3333 134.3333,-133 128.6667,-133 128.6667,-133 97.3333,-133 97.3333,-133 91.6667,-133 86,-127.3333 86,-121.6667 86,-121.6667 86,-110.3333 86,-110.3333 86,-104.6667 91.6667,-99 97.3333,-99"/>
</g>
<!-- TRG&#45;&gt;TX -->
<g id="edge2" class="edge transition">
<title>TRG&#45;&gt;TX</title>
<path fill="none" stroke="#000000" d="M57.336,-179.8874C52.6681,-170.8489 49.6223,-159.9616 54.695,-151 59.5725,-142.3832 67.5119,-135.6558 75.9834,-130.5047"/>
<polygon fill="#000000" stroke="#000000" points="77.7599,-133.5232 84.8983,-125.6942 74.4356,-127.3629 77.7599,-133.5232"/>
<text text-anchor="start" x="54" y="-154" font-family="Helvetica,sans-Serif" font-size="10.00" fill="#000000">cnt == ((dly_cnt+&#39;d1)&lt;&lt;2) &#160;&#160;</text>
</g>
<!-- TX&#45;&gt;IDLE -->
<g id="edge3" class="edge transition">
<title>TX&#45;&gt;IDLE</title>
<path fill="none" stroke="#000000" d="M141.0024,-124.182C154.0671,-129.5603 168.3858,-138.0595 176,-151 197.2166,-187.058 189.2032,-207.3309 171,-245 169.4488,-248.21 167.4587,-251.2573 165.2003,-254.1167"/>
<polygon fill="#000000" stroke="#000000" points="162.46,-251.9259 158.2672,-261.6558 167.6125,-256.6642 162.46,-251.9259"/>
<text text-anchor="start" x="188" y="-195" font-family="Helvetica,sans-Serif" font-size="10.00" fill="#000000">cnt == ((rd_cnt+&#39;d1)&lt;&lt;2) &#160;&#160;</text>
</g>
<!-- TX_WAIT -->
<g id="node5" class="node state regular">
<title>TX_WAIT</title>
<polygon fill="#ffffff" fill-opacity="0.003922" stroke="transparent" stroke-width="2" points="174.5,-52 101.5,-52 101.5,-16 174.5,-16 174.5,-52"/>
<text text-anchor="start" x="112.5002" y="-30.2" font-family="Helvetica,sans-Serif" font-size="12.00" fill="#000000">TX_WAIT</text>
<path fill="none" stroke="#000000" stroke-width="2" d="M113.8333,-17C113.8333,-17 162.1667,-17 162.1667,-17 167.8333,-17 173.5,-22.6667 173.5,-28.3333 173.5,-28.3333 173.5,-39.6667 173.5,-39.6667 173.5,-45.3333 167.8333,-51 162.1667,-51 162.1667,-51 113.8333,-51 113.8333,-51 108.1667,-51 102.5,-45.3333 102.5,-39.6667 102.5,-39.6667 102.5,-28.3333 102.5,-28.3333 102.5,-22.6667 108.1667,-17 113.8333,-17"/>
</g>
<!-- TX&#45;&gt;TX_WAIT -->
<g id="edge4" class="edge transition">
<title>TX&#45;&gt;TX_WAIT</title>
<path fill="none" stroke="#000000" d="M84.7977,-106.3083C65.3526,-97.9851 44.7528,-84.839 55.251,-69 63.5832,-56.4289 77.4253,-48.3611 91.4268,-43.188"/>
<polygon fill="#000000" stroke="#000000" points="92.6521,-46.4701 101.0798,-40.0494 90.4876,-39.8131 92.6521,-46.4701"/>
<text text-anchor="start" x="55" y="-72" font-family="Helvetica,sans-Serif" font-size="10.00" fill="#000000">not (cnt == ((rd_cnt+&#39;d1)&lt;&lt;2)) &#160;&#160;</text>
</g>
<!-- TX_WAIT&#45;&gt;TX -->
<g id="edge5" class="edge transition">
<title>TX_WAIT&#45;&gt;TX</title>
<path fill="none" stroke="#000000" d="M174.6649,-47.5242C191.12,-55.7948 205.0294,-67.3931 196,-81 185.975,-96.1072 168.0069,-104.7095 151.3464,-109.6001"/>
<polygon fill="#000000" stroke="#000000" points="150.0444,-106.3205 141.2245,-112.1906 151.7801,-113.1019 150.0444,-106.3205"/>
<text text-anchor="start" x="198" y="-72" font-family="Helvetica,sans-Serif" font-size="10.00" fill="#000000">tx_rdy_i == &#39;b1 &#160;&#160;</text>
</g>
</g>
</svg>
