<?xml version="1.0" encoding="UTF-8" standalone="no"?>
<!DOCTYPE svg PUBLIC "-//W3C//DTD SVG 1.1//EN"
 "http://www.w3.org/Graphics/SVG/1.1/DTD/svg11.dtd">
<!-- Generated by graphviz version 2.40.1 (20161225.0304)
 -->
<!-- Title: state transitions Pages: 1 -->
<svg width="342pt" height="376pt"
 viewBox="0.00 0.00 342.46 376.00" xmlns="http://www.w3.org/2000/svg" xmlns:xlink="http://www.w3.org/1999/xlink">
<g id="graph0" class="graph" transform="scale(1 1) rotate(0) translate(4 372)">
<title>state transitions</title>
<polygon fill="#ffffff" stroke="transparent" points="-4,4 -4,-372 338.463,-372 338.463,4 -4,4"/>
<g id="clust1" class="cluster state regular">
<title>cluster_state_next</title>
<path fill="none" stroke="#000000" stroke-width="2" d="M20,-8C20,-8 259,-8 259,-8 265,-8 271,-14 271,-20 271,-20 271,-348 271,-348 271,-354 265,-360 259,-360 259,-360 20,-360 20,-360 14,-360 8,-354 8,-348 8,-348 8,-20 8,-20 8,-14 14,-8 20,-8"/>
<text text-anchor="start" x="112.3208" y="-341.2" font-family="Helvetica,sans-Serif" font-size="12.00" fill="#000000">state_next</text>
</g>
<!-- state_next -->
<!-- IDLE -->
<g id="node2" class="node state regular">
<title>IDLE</title>
<polygon fill="#ffffff" fill-opacity="0.003922" stroke="transparent" stroke-width="2" points="115,-322 59,-322 59,-286 115,-286 115,-322"/>
<text text-anchor="start" x="73.6644" y="-300.2" font-family="Helvetica,sans-Serif" font-size="12.00" fill="#000000">IDLE</text>
<path fill="none" stroke="#000000" stroke-width="2" d="M71.3333,-287C71.3333,-287 102.6667,-287 102.6667,-287 108.3333,-287 114,-292.6667 114,-298.3333 114,-298.3333 114,-309.6667 114,-309.6667 114,-315.3333 108.3333,-321 102.6667,-321 102.6667,-321 71.3333,-321 71.3333,-321 65.6667,-321 60,-315.3333 60,-309.6667 60,-309.6667 60,-298.3333 60,-298.3333 60,-292.6667 65.6667,-287 71.3333,-287"/>
</g>
<!-- TX_START -->
<g id="node3" class="node state regular">
<title>TX_START</title>
<polygon fill="#ffffff" fill-opacity="0.003922" stroke="transparent" stroke-width="2" points="99.5,-240 16.5,-240 16.5,-204 99.5,-204 99.5,-240"/>
<text text-anchor="start" x="27.8328" y="-218.2" font-family="Helvetica,sans-Serif" font-size="12.00" fill="#000000">TX_START</text>
<path fill="none" stroke="#000000" stroke-width="2" d="M28.8333,-205C28.8333,-205 87.1667,-205 87.1667,-205 92.8333,-205 98.5,-210.6667 98.5,-216.3333 98.5,-216.3333 98.5,-227.6667 98.5,-227.6667 98.5,-233.3333 92.8333,-239 87.1667,-239 87.1667,-239 28.8333,-239 28.8333,-239 23.1667,-239 17.5,-233.3333 17.5,-227.6667 17.5,-227.6667 17.5,-216.3333 17.5,-216.3333 17.5,-210.6667 23.1667,-205 28.8333,-205"/>
</g>
<!-- IDLE&#45;&gt;TX_START -->
<g id="edge1" class="edge transition">
<title>IDLE&#45;&gt;TX_START</title>
<path fill="none" stroke="#000000" d="M65.8836,-285.812C61.5015,-280.8488 57.4986,-275.1315 55.125,-269 52.894,-263.237 52.2313,-256.7793 52.4052,-250.5397"/>
<polygon fill="#000000" stroke="#000000" points="55.9064,-250.6898 53.3585,-240.406 48.9372,-250.0342 55.9064,-250.6898"/>
<text text-anchor="start" x="55" y="-260" font-family="Helvetica,sans-Serif" font-size="10.00" fill="#000000">stb_i &amp;&amp; r_xctrl == XON &amp;&amp; sel_i &gt; 0 &#160;&#160;</text>
</g>
<!-- TX_DATA -->
<g id="node4" class="node state regular">
<title>TX_DATA</title>
<polygon fill="#ffffff" fill-opacity="0.003922" stroke="transparent" stroke-width="2" points="92,-146 16,-146 16,-110 92,-110 92,-146"/>
<text text-anchor="start" x="26.9982" y="-124.2" font-family="Helvetica,sans-Serif" font-size="12.00" fill="#000000">TX_DATA</text>
<path fill="none" stroke="#000000" stroke-width="2" d="M28.3333,-111C28.3333,-111 79.6667,-111 79.6667,-111 85.3333,-111 91,-116.6667 91,-122.3333 91,-122.3333 91,-133.6667 91,-133.6667 91,-139.3333 85.3333,-145 79.6667,-145 79.6667,-145 28.3333,-145 28.3333,-145 22.6667,-145 17,-139.3333 17,-133.6667 17,-133.6667 17,-122.3333 17,-122.3333 17,-116.6667 22.6667,-111 28.3333,-111"/>
</g>
<!-- TX_START&#45;&gt;TX_DATA -->
<g id="edge2" class="edge transition">
<title>TX_START&#45;&gt;TX_DATA</title>
<path fill="none" stroke="#000000" d="M56.4204,-203.8461C55.9999,-198.4303 55.5879,-192.4781 55.317,-187 54.819,-176.93 54.5093,-165.8838 54.3166,-156.0998"/>
<polygon fill="#000000" stroke="#000000" points="57.816,-156.025 54.1502,-146.0846 50.8169,-156.1414 57.816,-156.025"/>
<text text-anchor="start" x="55" y="-172" font-family="Helvetica,sans-Serif" font-size="10.00" fill="#000000">time_cnt == &#39;b0 &#160;&#160;</text>
</g>
<!-- TX_STOP -->
<g id="node5" class="node state regular">
<title>TX_STOP</title>
<polygon fill="#ffffff" fill-opacity="0.003922" stroke="transparent" stroke-width="2" points="176,-52 100,-52 100,-16 176,-16 176,-52"/>
<text text-anchor="start" x="110.6622" y="-30.2" font-family="Helvetica,sans-Serif" font-size="12.00" fill="#000000">TX_STOP</text>
<path fill="none" stroke="#000000" stroke-width="2" d="M112.3333,-17C112.3333,-17 163.6667,-17 163.6667,-17 169.3333,-17 175,-22.6667 175,-28.3333 175,-28.3333 175,-39.6667 175,-39.6667 175,-45.3333 169.3333,-51 163.6667,-51 163.6667,-51 112.3333,-51 112.3333,-51 106.6667,-51 101,-45.3333 101,-39.6667 101,-39.6667 101,-28.3333 101,-28.3333 101,-22.6667 106.6667,-17 112.3333,-17"/>
</g>
<!-- TX_DATA&#45;&gt;TX_STOP -->
<g id="edge3" class="edge transition">
<title>TX_DATA&#45;&gt;TX_STOP</title>
<path fill="none" stroke="#000000" d="M49.6041,-109.9466C47.6226,-97.4007 47.2612,-80.868 55.317,-69 63.4887,-56.9612 76.6939,-49.0484 90.1756,-43.8533"/>
<polygon fill="#000000" stroke="#000000" points="91.6271,-47.0569 99.9732,-40.5306 89.3789,-40.4277 91.6271,-47.0569"/>
<text text-anchor="start" x="55" y="-84" font-family="Helvetica,sans-Serif" font-size="10.00" fill="#000000">bit_cnt == &#39;b0 &#160;&#160;</text>
<text text-anchor="start" x="55" y="-72" font-family="Helvetica,sans-Serif" font-size="10.00" fill="#000000">time_cnt == &#39;b0 &#160;&#160;</text>
</g>
<!-- TX_STOP&#45;&gt;IDLE -->
<g id="edge4" class="edge transition">
<title>TX_STOP&#45;&gt;IDLE</title>
<path fill="none" stroke="#000000" d="M176.0834,-46.8925C204.0121,-58.5854 239.9209,-78.8273 257,-110 264.6879,-124.032 258.9093,-130.1143 257,-146 250.2854,-201.8671 266.6738,-229.0975 227,-269 212.892,-283.1893 161.8847,-293.2979 125.5177,-298.8939"/>
<polygon fill="#000000" stroke="#000000" points="124.6047,-295.4908 115.2256,-300.4187 125.6306,-302.4153 124.6047,-295.4908"/>
<text text-anchor="start" x="255" y="-178" font-family="Helvetica,sans-Serif" font-size="10.00" fill="#000000">word_cnt == &#39;b0 &#160;&#160;</text>
<text text-anchor="start" x="255" y="-166" font-family="Helvetica,sans-Serif" font-size="10.00" fill="#000000">time_cnt == &#39;b0 &#160;&#160;</text>
</g>
<!-- TX_STOP&#45;&gt;TX_START -->
<g id="edge5" class="edge transition">
<title>TX_STOP&#45;&gt;TX_START</title>
<path fill="none" stroke="#000000" d="M143.0729,-52.3137C150.4263,-83.0026 160.3779,-145.5225 133,-187 127.1215,-195.906 118.3418,-202.5902 108.839,-207.5923"/>
<polygon fill="#000000" stroke="#000000" points="107.175,-204.5059 99.5775,-211.8903 110.1217,-210.8555 107.175,-204.5059"/>
<text text-anchor="start" x="151" y="-131" font-family="Helvetica,sans-Serif" font-size="10.00" fill="#000000">not (word_cnt == &#39;b0) &#160;&#160;</text>
<text text-anchor="start" x="151" y="-119" font-family="Helvetica,sans-Serif" font-size="10.00" fill="#000000">time_cnt == &#39;b0 &#160;&#160;</text>
</g>
</g>
</svg>
