<?xml version="1.0" encoding="UTF-8" standalone="no"?>
<!DOCTYPE svg PUBLIC "-//W3C//DTD SVG 1.1//EN"
 "http://www.w3.org/Graphics/SVG/1.1/DTD/svg11.dtd">
<!-- Generated by graphviz version 2.40.1 (20161225.0304)
 -->
<!-- Title: state transitions Pages: 1 -->
<svg width="222pt" height="364pt"
 viewBox="0.00 0.00 222.00 364.00" xmlns="http://www.w3.org/2000/svg" xmlns:xlink="http://www.w3.org/1999/xlink">
<g id="graph0" class="graph" transform="scale(1 1) rotate(0) translate(4 360)">
<title>state transitions</title>
<polygon fill="#ffffff" stroke="transparent" points="-4,4 -4,-360 218,-360 218,4 -4,4"/>
<g id="clust1" class="cluster state regular">
<title>cluster_state_next</title>
<path fill="none" stroke="#000000" stroke-width="2" d="M20,-8C20,-8 194,-8 194,-8 200,-8 206,-14 206,-20 206,-20 206,-336 206,-336 206,-342 200,-348 194,-348 194,-348 20,-348 20,-348 14,-348 8,-342 8,-336 8,-336 8,-20 8,-20 8,-14 14,-8 20,-8"/>
<text text-anchor="start" x="79.8208" y="-329.2" font-family="Helvetica,sans-Serif" font-size="12.00" fill="#000000">state_next</text>
</g>
<!-- state_next -->
<!-- IDLE -->
<g id="node2" class="node state regular">
<title>IDLE</title>
<polygon fill="#ffffff" fill-opacity="0.003922" stroke="transparent" stroke-width="2" points="131,-310 75,-310 75,-274 131,-274 131,-310"/>
<text text-anchor="start" x="89.6644" y="-288.2" font-family="Helvetica,sans-Serif" font-size="12.00" fill="#000000">IDLE</text>
<path fill="none" stroke="#000000" stroke-width="2" d="M87.3333,-275C87.3333,-275 118.6667,-275 118.6667,-275 124.3333,-275 130,-280.6667 130,-286.3333 130,-286.3333 130,-297.6667 130,-297.6667 130,-303.3333 124.3333,-309 118.6667,-309 118.6667,-309 87.3333,-309 87.3333,-309 81.6667,-309 76,-303.3333 76,-297.6667 76,-297.6667 76,-286.3333 76,-286.3333 76,-280.6667 81.6667,-275 87.3333,-275"/>
</g>
<!-- TRIG -->
<g id="node3" class="node state regular">
<title>TRIG</title>
<polygon fill="#ffffff" fill-opacity="0.003922" stroke="transparent" stroke-width="2" points="84,-228 28,-228 28,-192 84,-192 84,-228"/>
<text text-anchor="start" x="41.6684" y="-206.2" font-family="Helvetica,sans-Serif" font-size="12.00" fill="#000000">TRIG</text>
<path fill="none" stroke="#000000" stroke-width="2" d="M40.3333,-193C40.3333,-193 71.6667,-193 71.6667,-193 77.3333,-193 83,-198.6667 83,-204.3333 83,-204.3333 83,-215.6667 83,-215.6667 83,-221.3333 77.3333,-227 71.6667,-227 71.6667,-227 40.3333,-227 40.3333,-227 34.6667,-227 29,-221.3333 29,-215.6667 29,-215.6667 29,-204.3333 29,-204.3333 29,-198.6667 34.6667,-193 40.3333,-193"/>
</g>
<!-- IDLE&#45;&gt;TRIG -->
<g id="edge1" class="edge transition">
<title>IDLE&#45;&gt;TRIG</title>
<path fill="none" stroke="#000000" d="M92.5692,-273.8015C86.3626,-262.973 78.3726,-249.033 71.445,-236.9466"/>
<polygon fill="#000000" stroke="#000000" points="74.4111,-235.083 66.4017,-228.1476 68.3379,-238.564 74.4111,-235.083"/>
<text text-anchor="start" x="82" y="-248" font-family="Helvetica,sans-Serif" font-size="10.00" fill="#000000">rx_i == &#39;b0 &#160;&#160;</text>
</g>
<!-- SAMPLE -->
<g id="node4" class="node state regular">
<title>SAMPLE</title>
<polygon fill="#ffffff" fill-opacity="0.003922" stroke="transparent" stroke-width="2" points="86,-146 16,-146 16,-110 86,-110 86,-146"/>
<text text-anchor="start" x="26.6616" y="-124.2" font-family="Helvetica,sans-Serif" font-size="12.00" fill="#000000">SAMPLE</text>
<path fill="none" stroke="#000000" stroke-width="2" d="M28.3333,-111C28.3333,-111 73.6667,-111 73.6667,-111 79.3333,-111 85,-116.6667 85,-122.3333 85,-122.3333 85,-133.6667 85,-133.6667 85,-139.3333 79.3333,-145 73.6667,-145 73.6667,-145 28.3333,-145 28.3333,-145 22.6667,-145 17,-139.3333 17,-133.6667 17,-133.6667 17,-122.3333 17,-122.3333 17,-116.6667 22.6667,-111 28.3333,-111"/>
</g>
<!-- TRIG&#45;&gt;SAMPLE -->
<g id="edge2" class="edge transition">
<title>TRIG&#45;&gt;SAMPLE</title>
<path fill="none" stroke="#000000" d="M54.8903,-191.8015C54.256,-181.3976 53.4464,-168.1215 52.7303,-156.3768"/>
<polygon fill="#000000" stroke="#000000" points="56.2088,-155.916 52.1066,-146.1476 49.2218,-156.3421 56.2088,-155.916"/>
<text text-anchor="start" x="53" y="-166" font-family="Helvetica,sans-Serif" font-size="10.00" fill="#000000">take_smpl &#160;&#160;</text>
</g>
<!-- STOP -->
<g id="node5" class="node state regular">
<title>STOP</title>
<polygon fill="#ffffff" fill-opacity="0.003922" stroke="transparent" stroke-width="2" points="135,-52 79,-52 79,-16 135,-16 135,-52"/>
<text text-anchor="start" x="90.6644" y="-30.2" font-family="Helvetica,sans-Serif" font-size="12.00" fill="#000000">STOP</text>
<path fill="none" stroke="#000000" stroke-width="2" d="M91.3333,-17C91.3333,-17 122.6667,-17 122.6667,-17 128.3333,-17 134,-22.6667 134,-28.3333 134,-28.3333 134,-39.6667 134,-39.6667 134,-45.3333 128.3333,-51 122.6667,-51 122.6667,-51 91.3333,-51 91.3333,-51 85.6667,-51 80,-45.3333 80,-39.6667 80,-39.6667 80,-28.3333 80,-28.3333 80,-22.6667 85.6667,-17 91.3333,-17"/>
</g>
<!-- SAMPLE&#45;&gt;STOP -->
<g id="edge3" class="edge transition">
<title>SAMPLE&#45;&gt;STOP</title>
<path fill="none" stroke="#000000" d="M48.4287,-109.7696C47.5947,-97.4544 48.3266,-81.2681 55.428,-69 59.1548,-62.5616 64.5994,-57.0571 70.5703,-52.4492"/>
<polygon fill="#000000" stroke="#000000" points="72.6596,-55.2604 78.9268,-46.718 68.7004,-49.4876 72.6596,-55.2604"/>
<text text-anchor="start" x="55" y="-84" font-family="Helvetica,sans-Serif" font-size="10.00" fill="#000000">bit_cnt == (WORD_BITS &#45; 1) &#160;&#160;</text>
<text text-anchor="start" x="55" y="-72" font-family="Helvetica,sans-Serif" font-size="10.00" fill="#000000">take_smpl &#160;&#160;</text>
</g>
<!-- STOP&#45;&gt;IDLE -->
<g id="edge4" class="edge transition">
<title>STOP&#45;&gt;IDLE</title>
<path fill="none" stroke="#000000" d="M135.0534,-37.4386C154.6166,-41.4613 179.3901,-50.1706 192,-69 222.7041,-114.8481 144,-128.3204 144,-183.5 144,-251 144,-251 144,-251 144,-257.1909 141.6338,-262.7734 138.0382,-267.6827"/>
<polygon fill="#000000" stroke="#000000" points="135.2259,-265.57 131.0273,-275.2974 140.3756,-270.3113 135.2259,-265.57"/>
<text text-anchor="start" x="147" y="-166" font-family="Helvetica,sans-Serif" font-size="10.00" fill="#000000">take_smpl &#160;&#160;</text>
</g>
</g>
</svg>
