<?xml version="1.0" encoding="UTF-8" standalone="no"?>
<!DOCTYPE svg PUBLIC "-//W3C//DTD SVG 1.1//EN"
 "http://www.w3.org/Graphics/SVG/1.1/DTD/svg11.dtd">
<!-- Generated by graphviz version 2.40.1 (20161225.0304)
 -->
<!-- Title: state transitions Pages: 1 -->
<svg width="294pt" height="352pt"
 viewBox="0.00 0.00 294.00 352.00" xmlns="http://www.w3.org/2000/svg" xmlns:xlink="http://www.w3.org/1999/xlink">
<g id="graph0" class="graph" transform="scale(1 1) rotate(0) translate(4 348)">
<title>state transitions</title>
<polygon fill="#ffffff" stroke="transparent" points="-4,4 -4,-348 290,-348 290,4 -4,4"/>
<g id="clust1" class="cluster state regular">
<title>cluster_state_next</title>
<path fill="none" stroke="#000000" stroke-width="2" d="M20,-8C20,-8 266,-8 266,-8 272,-8 278,-14 278,-20 278,-20 278,-324 278,-324 278,-330 272,-336 266,-336 266,-336 20,-336 20,-336 14,-336 8,-330 8,-324 8,-324 8,-20 8,-20 8,-14 14,-8 20,-8"/>
<text text-anchor="start" x="115.8208" y="-317.2" font-family="Helvetica,sans-Serif" font-size="12.00" fill="#000000">state_next</text>
</g>
<!-- state_next -->
<!-- IDLE -->
<g id="node2" class="node state regular">
<title>IDLE</title>
<polygon fill="#ffffff" fill-opacity="0.003922" stroke="transparent" stroke-width="2" points="152,-298 96,-298 96,-262 152,-262 152,-298"/>
<text text-anchor="start" x="110.6644" y="-276.2" font-family="Helvetica,sans-Serif" font-size="12.00" fill="#000000">IDLE</text>
<path fill="none" stroke="#000000" stroke-width="2" d="M108.3333,-263C108.3333,-263 139.6667,-263 139.6667,-263 145.3333,-263 151,-268.6667 151,-274.3333 151,-274.3333 151,-285.6667 151,-285.6667 151,-291.3333 145.3333,-297 139.6667,-297 139.6667,-297 108.3333,-297 108.3333,-297 102.6667,-297 97,-291.3333 97,-285.6667 97,-285.6667 97,-274.3333 97,-274.3333 97,-268.6667 102.6667,-263 108.3333,-263"/>
</g>
<!-- TRG -->
<g id="node3" class="node state regular">
<title>TRG</title>
<polygon fill="#ffffff" fill-opacity="0.003922" stroke="transparent" stroke-width="2" points="97,-216 41,-216 41,-180 97,-180 97,-216"/>
<text text-anchor="start" x="56.3358" y="-194.2" font-family="Helvetica,sans-Serif" font-size="12.00" fill="#000000">TRG</text>
<path fill="none" stroke="#000000" stroke-width="2" d="M53.3333,-181C53.3333,-181 84.6667,-181 84.6667,-181 90.3333,-181 96,-186.6667 96,-192.3333 96,-192.3333 96,-203.6667 96,-203.6667 96,-209.3333 90.3333,-215 84.6667,-215 84.6667,-215 53.3333,-215 53.3333,-215 47.6667,-215 42,-209.3333 42,-203.6667 42,-203.6667 42,-192.3333 42,-192.3333 42,-186.6667 47.6667,-181 53.3333,-181"/>
</g>
<!-- IDLE&#45;&gt;TRG -->
<g id="edge1" class="edge transition">
<title>IDLE&#45;&gt;TRG</title>
<path fill="none" stroke="#000000" d="M111.7937,-261.8015C104.4594,-250.8668 94.9971,-236.7593 86.8359,-224.5916"/>
<polygon fill="#000000" stroke="#000000" points="89.6493,-222.5029 81.1722,-216.1476 83.8358,-226.4021 89.6493,-222.5029"/>
<text text-anchor="start" x="100" y="-236" font-family="Helvetica,sans-Serif" font-size="10.00" fill="#000000">run_i == &#39;b1 &#160;&#160;</text>
</g>
<!-- TX -->
<g id="node4" class="node state regular">
<title>TX</title>
<polygon fill="#ffffff" fill-opacity="0.003922" stroke="transparent" stroke-width="2" points="140,-134 84,-134 84,-98 140,-98 140,-134"/>
<text text-anchor="start" x="104.3332" y="-112.2" font-family="Helvetica,sans-Serif" font-size="12.00" fill="#000000">TX</text>
<path fill="none" stroke="#000000" stroke-width="2" d="M96.3333,-99C96.3333,-99 127.6667,-99 127.6667,-99 133.3333,-99 139,-104.6667 139,-110.3333 139,-110.3333 139,-121.6667 139,-121.6667 139,-127.3333 133.3333,-133 127.6667,-133 127.6667,-133 96.3333,-133 96.3333,-133 90.6667,-133 85,-127.3333 85,-121.6667 85,-121.6667 85,-110.3333 85,-110.3333 85,-104.6667 90.6667,-99 96.3333,-99"/>
</g>
<!-- TRG&#45;&gt;TX -->
<g id="edge2" class="edge transition">
<title>TRG&#45;&gt;TX</title>
<path fill="none" stroke="#000000" d="M65.7048,-179.7784C64.9137,-170.7121 65.2919,-159.8329 69.519,-151 71.2786,-147.3231 73.6312,-143.8999 76.3305,-140.7477"/>
<polygon fill="#000000" stroke="#000000" points="79.0067,-143.0217 83.6135,-133.4809 74.0624,-138.0665 79.0067,-143.0217"/>
<text text-anchor="start" x="69" y="-154" font-family="Helvetica,sans-Serif" font-size="10.00" fill="#000000">cnt == (dly_cnt&lt;&lt;2) &#160;&#160;</text>
</g>
<!-- TX&#45;&gt;IDLE -->
<g id="edge3" class="edge transition">
<title>TX&#45;&gt;IDLE</title>
<path fill="none" stroke="#000000" d="M140.3204,-124.3694C155.0433,-130.647 170,-140.9693 170,-157 170,-239 170,-239 170,-239 170,-247.1989 165.8772,-254.1634 160.1001,-259.8977"/>
<polygon fill="#000000" stroke="#000000" points="157.5751,-257.4431 152.0835,-266.5036 162.0267,-262.8453 157.5751,-257.4431"/>
<text text-anchor="start" x="170" y="-195" font-family="Helvetica,sans-Serif" font-size="10.00" fill="#000000">cnt == (rd_cnt&lt;&lt;2) &#160;&#160;</text>
</g>
<!-- TX_WAIT -->
<g id="node5" class="node state regular">
<title>TX_WAIT</title>
<polygon fill="#ffffff" fill-opacity="0.003922" stroke="transparent" stroke-width="2" points="161.5,-52 88.5,-52 88.5,-16 161.5,-16 161.5,-52"/>
<text text-anchor="start" x="99.5002" y="-30.2" font-family="Helvetica,sans-Serif" font-size="12.00" fill="#000000">TX_WAIT</text>
<path fill="none" stroke="#000000" stroke-width="2" d="M100.8333,-17C100.8333,-17 149.1667,-17 149.1667,-17 154.8333,-17 160.5,-22.6667 160.5,-28.3333 160.5,-28.3333 160.5,-39.6667 160.5,-39.6667 160.5,-45.3333 154.8333,-51 149.1667,-51 149.1667,-51 100.8333,-51 100.8333,-51 95.1667,-51 89.5,-45.3333 89.5,-39.6667 89.5,-39.6667 89.5,-28.3333 89.5,-28.3333 89.5,-22.6667 95.1667,-17 100.8333,-17"/>
</g>
<!-- TX&#45;&gt;TX_WAIT -->
<g id="edge4" class="edge transition">
<title>TX&#45;&gt;TX_WAIT</title>
<path fill="none" stroke="#000000" d="M83.6661,-106.0711C64.8681,-97.7886 45.3086,-84.81 55.075,-69 60.698,-59.8975 69.4862,-53.0823 78.9577,-48.0089"/>
<polygon fill="#000000" stroke="#000000" points="80.6188,-51.0952 88.1671,-43.6605 77.63,-44.7653 80.6188,-51.0952"/>
<text text-anchor="start" x="55" y="-72" font-family="Helvetica,sans-Serif" font-size="10.00" fill="#000000">not (cnt == (rd_cnt&lt;&lt;2)) &#160;&#160;</text>
</g>
<!-- TX_WAIT&#45;&gt;TX -->
<g id="edge5" class="edge transition">
<title>TX_WAIT&#45;&gt;TX</title>
<path fill="none" stroke="#000000" d="M158.4607,-52.0872C168.7937,-60.1649 176.0532,-70.2772 170,-81 165.1941,-89.5133 157.394,-96.1882 149.0509,-101.3209"/>
<polygon fill="#000000" stroke="#000000" points="147.3591,-98.2568 140.2626,-106.1239 150.7162,-104.3993 147.3591,-98.2568"/>
<text text-anchor="start" x="172" y="-72" font-family="Helvetica,sans-Serif" font-size="10.00" fill="#000000">tx_rdy_i == &#39;b1 &#160;&#160;</text>
</g>
</g>
</svg>
