<?xml version="1.0" encoding="UTF-8" standalone="no"?>
<!DOCTYPE svg PUBLIC "-//W3C//DTD SVG 1.1//EN"
 "http://www.w3.org/Graphics/SVG/1.1/DTD/svg11.dtd">
<!-- Generated by graphviz version 2.40.1 (20161225.0304)
 -->
<!-- Title: state transitions Pages: 1 -->
<svg width="259pt" height="270pt"
 viewBox="0.00 0.00 258.91 270.00" xmlns="http://www.w3.org/2000/svg" xmlns:xlink="http://www.w3.org/1999/xlink">
<g id="graph0" class="graph" transform="scale(1 1) rotate(0) translate(4 266)">
<title>state transitions</title>
<polygon fill="#ffffff" stroke="transparent" points="-4,4 -4,-266 254.914,-266 254.914,4 -4,4"/>
<g id="clust1" class="cluster state regular">
<title>cluster_state_next</title>
<path fill="none" stroke="#000000" stroke-width="2" d="M20,-8C20,-8 193,-8 193,-8 199,-8 205,-14 205,-20 205,-20 205,-242 205,-242 205,-248 199,-254 193,-254 193,-254 20,-254 20,-254 14,-254 8,-248 8,-242 8,-242 8,-20 8,-20 8,-14 14,-8 20,-8"/>
<text text-anchor="start" x="79.3208" y="-235.2" font-family="Helvetica,sans-Serif" font-size="12.00" fill="#000000">state_next</text>
</g>
<!-- state_next -->
<!-- IDLE -->
<g id="node2" class="node state regular">
<title>IDLE</title>
<polygon fill="#ffffff" fill-opacity="0.003922" stroke="transparent" stroke-width="2" points="114,-216 58,-216 58,-180 114,-180 114,-216"/>
<text text-anchor="start" x="72.6644" y="-194.2" font-family="Helvetica,sans-Serif" font-size="12.00" fill="#000000">IDLE</text>
<path fill="none" stroke="#000000" stroke-width="2" d="M70.3333,-181C70.3333,-181 101.6667,-181 101.6667,-181 107.3333,-181 113,-186.6667 113,-192.3333 113,-192.3333 113,-203.6667 113,-203.6667 113,-209.3333 107.3333,-215 101.6667,-215 101.6667,-215 70.3333,-215 70.3333,-215 64.6667,-215 59,-209.3333 59,-203.6667 59,-203.6667 59,-192.3333 59,-192.3333 59,-186.6667 64.6667,-181 70.3333,-181"/>
</g>
<!-- ARMD -->
<g id="node3" class="node state regular">
<title>ARMD</title>
<polygon fill="#ffffff" fill-opacity="0.003922" stroke="transparent" stroke-width="2" points="73.5,-134 16.5,-134 16.5,-98 73.5,-98 73.5,-134"/>
<text text-anchor="start" x="27.8384" y="-112.2" font-family="Helvetica,sans-Serif" font-size="12.00" fill="#000000">ARMD</text>
<path fill="none" stroke="#000000" stroke-width="2" d="M28.8333,-99C28.8333,-99 61.1667,-99 61.1667,-99 66.8333,-99 72.5,-104.6667 72.5,-110.3333 72.5,-110.3333 72.5,-121.6667 72.5,-121.6667 72.5,-127.3333 66.8333,-133 61.1667,-133 61.1667,-133 28.8333,-133 28.8333,-133 23.1667,-133 17.5,-127.3333 17.5,-121.6667 17.5,-121.6667 17.5,-110.3333 17.5,-110.3333 17.5,-104.6667 23.1667,-99 28.8333,-99"/>
</g>
<!-- IDLE&#45;&gt;ARMD -->
<g id="edge1" class="edge transition">
<title>IDLE&#45;&gt;ARMD</title>
<path fill="none" stroke="#000000" d="M76.9008,-179.8015C71.5396,-169.0791 64.653,-155.306 58.6513,-143.3026"/>
<polygon fill="#000000" stroke="#000000" points="61.6765,-141.5266 54.0738,-134.1476 55.4155,-144.6571 61.6765,-141.5266"/>
<text text-anchor="start" x="68" y="-154" font-family="Helvetica,sans-Serif" font-size="10.00" fill="#000000">arm_i &#160;&#160;</text>
</g>
<!-- MTCHD -->
<g id="node4" class="node state regular">
<title>MTCHD</title>
<polygon fill="#ffffff" fill-opacity="0.003922" stroke="transparent" stroke-width="2" points="139.5,-52 74.5,-52 74.5,-16 139.5,-16 139.5,-52"/>
<text text-anchor="start" x="85.843" y="-30.2" font-family="Helvetica,sans-Serif" font-size="12.00" fill="#000000">MTCHD</text>
<path fill="none" stroke="#000000" stroke-width="2" d="M86.8333,-17C86.8333,-17 127.1667,-17 127.1667,-17 132.8333,-17 138.5,-22.6667 138.5,-28.3333 138.5,-28.3333 138.5,-39.6667 138.5,-39.6667 138.5,-45.3333 132.8333,-51 127.1667,-51 127.1667,-51 86.8333,-51 86.8333,-51 81.1667,-51 75.5,-45.3333 75.5,-39.6667 75.5,-39.6667 75.5,-28.3333 75.5,-28.3333 75.5,-22.6667 81.1667,-17 86.8333,-17"/>
</g>
<!-- ARMD&#45;&gt;MTCHD -->
<g id="edge2" class="edge transition">
<title>ARMD&#45;&gt;MTCHD</title>
<path fill="none" stroke="#000000" d="M45.4491,-97.7804C46.443,-88.5025 48.8744,-77.4329 54.537,-69 57.7033,-64.2846 61.7406,-60.0431 66.1659,-56.277"/>
<polygon fill="#000000" stroke="#000000" points="68.5834,-58.8369 74.4461,-50.0119 64.3597,-53.2547 68.5834,-58.8369"/>
<text text-anchor="start" x="54" y="-72" font-family="Helvetica,sans-Serif" font-size="10.00" fill="#000000">trg_match &amp;&amp; lvl_i &gt;= r_lvl &#160;&#160;</text>
</g>
<!-- MTCHD&#45;&gt;IDLE -->
<g id="edge3" class="edge transition">
<title>MTCHD&#45;&gt;IDLE</title>
<path fill="none" stroke="#000000" d="M139.8983,-41.0775C162.5349,-47.8734 187.306,-60.2413 180,-81 167.0988,-117.6563 137.326,-151.3119 114.7184,-173.022"/>
<polygon fill="#000000" stroke="#000000" points="112.2665,-170.5229 107.3608,-179.9136 117.0519,-175.6318 112.2665,-170.5229"/>
<text text-anchor="start" x="172" y="-113" font-family="Helvetica,sans-Serif" font-size="10.00" fill="#000000">dly_cnt == r_dly &#160;&#160;</text>
</g>
</g>
</svg>
