<?xml version="1.0" encoding="UTF-8" standalone="no"?>
<!DOCTYPE svg PUBLIC "-//W3C//DTD SVG 1.1//EN"
 "http://www.w3.org/Graphics/SVG/1.1/DTD/svg11.dtd">
<!-- Generated by graphviz version 2.40.1 (20161225.0304)
 -->
<!-- Title: state transitions Pages: 1 -->
<svg width="323pt" height="376pt"
 viewBox="0.00 0.00 323.46 376.00" xmlns="http://www.w3.org/2000/svg" xmlns:xlink="http://www.w3.org/1999/xlink">
<g id="graph0" class="graph" transform="scale(1 1) rotate(0) translate(4 372)">
<title>state transitions</title>
<polygon fill="#ffffff" stroke="transparent" points="-4,4 -4,-372 319.463,-372 319.463,4 -4,4"/>
<g id="clust1" class="cluster state regular">
<title>cluster_state_next</title>
<path fill="none" stroke="#000000" stroke-width="2" d="M20,-8C20,-8 259,-8 259,-8 265,-8 271,-14 271,-20 271,-20 271,-348 271,-348 271,-354 265,-360 259,-360 259,-360 20,-360 20,-360 14,-360 8,-354 8,-348 8,-348 8,-20 8,-20 8,-14 14,-8 20,-8"/>
<text text-anchor="start" x="112.3208" y="-341.2" font-family="Helvetica,sans-Serif" font-size="12.00" fill="#000000">state_next</text>
</g>
<!-- state_next -->
<!-- IDLE -->
<g id="node2" class="node state regular">
<title>IDLE</title>
<polygon fill="#ffffff" fill-opacity="0.003922" stroke="transparent" stroke-width="2" points="144,-322 88,-322 88,-286 144,-286 144,-322"/>
<text text-anchor="start" x="102.6644" y="-300.2" font-family="Helvetica,sans-Serif" font-size="12.00" fill="#000000">IDLE</text>
<path fill="none" stroke="#000000" stroke-width="2" d="M100.3333,-287C100.3333,-287 131.6667,-287 131.6667,-287 137.3333,-287 143,-292.6667 143,-298.3333 143,-298.3333 143,-309.6667 143,-309.6667 143,-315.3333 137.3333,-321 131.6667,-321 131.6667,-321 100.3333,-321 100.3333,-321 94.6667,-321 89,-315.3333 89,-309.6667 89,-309.6667 89,-298.3333 89,-298.3333 89,-292.6667 94.6667,-287 100.3333,-287"/>
</g>
<!-- TX_START -->
<g id="node3" class="node state regular">
<title>TX_START</title>
<polygon fill="#ffffff" fill-opacity="0.003922" stroke="transparent" stroke-width="2" points="99.5,-240 16.5,-240 16.5,-204 99.5,-204 99.5,-240"/>
<text text-anchor="start" x="27.8328" y="-218.2" font-family="Helvetica,sans-Serif" font-size="12.00" fill="#000000">TX_START</text>
<path fill="none" stroke="#000000" stroke-width="2" d="M28.8333,-205C28.8333,-205 87.1667,-205 87.1667,-205 92.8333,-205 98.5,-210.6667 98.5,-216.3333 98.5,-216.3333 98.5,-227.6667 98.5,-227.6667 98.5,-233.3333 92.8333,-239 87.1667,-239 87.1667,-239 28.8333,-239 28.8333,-239 23.1667,-239 17.5,-233.3333 17.5,-227.6667 17.5,-227.6667 17.5,-216.3333 17.5,-216.3333 17.5,-210.6667 23.1667,-205 28.8333,-205"/>
</g>
<!-- IDLE&#45;&gt;TX_START -->
<g id="edge1" class="edge transition">
<title>IDLE&#45;&gt;TX_START</title>
<path fill="none" stroke="#000000" d="M87.9447,-291.4149C78.6977,-285.8659 69.312,-278.4291 63.533,-269 60.0956,-263.3916 58.2671,-256.6941 57.3774,-250.1374"/>
<polygon fill="#000000" stroke="#000000" points="60.8657,-249.8489 56.6556,-240.1265 53.8839,-250.3524 60.8657,-249.8489"/>
<text text-anchor="start" x="63" y="-260" font-family="Helvetica,sans-Serif" font-size="10.00" fill="#000000">stb_i &amp;&amp; r_xctrl == XON &#160;&#160;</text>
</g>
<!-- TX_DATA -->
<g id="node4" class="node state regular">
<title>TX_DATA</title>
<polygon fill="#ffffff" fill-opacity="0.003922" stroke="transparent" stroke-width="2" points="92,-146 16,-146 16,-110 92,-110 92,-146"/>
<text text-anchor="start" x="26.9982" y="-124.2" font-family="Helvetica,sans-Serif" font-size="12.00" fill="#000000">TX_DATA</text>
<path fill="none" stroke="#000000" stroke-width="2" d="M28.3333,-111C28.3333,-111 79.6667,-111 79.6667,-111 85.3333,-111 91,-116.6667 91,-122.3333 91,-122.3333 91,-133.6667 91,-133.6667 91,-139.3333 85.3333,-145 79.6667,-145 79.6667,-145 28.3333,-145 28.3333,-145 22.6667,-145 17,-139.3333 17,-133.6667 17,-133.6667 17,-122.3333 17,-122.3333 17,-116.6667 22.6667,-111 28.3333,-111"/>
</g>
<!-- TX_START&#45;&gt;TX_DATA -->
<g id="edge2" class="edge transition">
<title>TX_START&#45;&gt;TX_DATA</title>
<path fill="none" stroke="#000000" d="M56.4204,-203.8461C55.9999,-198.4303 55.5879,-192.4781 55.317,-187 54.819,-176.93 54.5093,-165.8838 54.3166,-156.0998"/>
<polygon fill="#000000" stroke="#000000" points="57.816,-156.025 54.1502,-146.0846 50.8169,-156.1414 57.816,-156.025"/>
<text text-anchor="start" x="55" y="-172" font-family="Helvetica,sans-Serif" font-size="10.00" fill="#000000">time_cnt == &#39;b0 &#160;&#160;</text>
</g>
<!-- TX_STOP -->
<g id="node5" class="node state regular">
<title>TX_STOP</title>
<polygon fill="#ffffff" fill-opacity="0.003922" stroke="transparent" stroke-width="2" points="176,-52 100,-52 100,-16 176,-16 176,-52"/>
<text text-anchor="start" x="110.6622" y="-30.2" font-family="Helvetica,sans-Serif" font-size="12.00" fill="#000000">TX_STOP</text>
<path fill="none" stroke="#000000" stroke-width="2" d="M112.3333,-17C112.3333,-17 163.6667,-17 163.6667,-17 169.3333,-17 175,-22.6667 175,-28.3333 175,-28.3333 175,-39.6667 175,-39.6667 175,-45.3333 169.3333,-51 163.6667,-51 163.6667,-51 112.3333,-51 112.3333,-51 106.6667,-51 101,-45.3333 101,-39.6667 101,-39.6667 101,-28.3333 101,-28.3333 101,-22.6667 106.6667,-17 112.3333,-17"/>
</g>
<!-- TX_DATA&#45;&gt;TX_STOP -->
<g id="edge3" class="edge transition">
<title>TX_DATA&#45;&gt;TX_STOP</title>
<path fill="none" stroke="#000000" d="M49.6041,-109.9466C47.6226,-97.4007 47.2612,-80.868 55.317,-69 63.4887,-56.9612 76.6939,-49.0484 90.1756,-43.8533"/>
<polygon fill="#000000" stroke="#000000" points="91.6271,-47.0569 99.9732,-40.5306 89.3789,-40.4277 91.6271,-47.0569"/>
<text text-anchor="start" x="55" y="-84" font-family="Helvetica,sans-Serif" font-size="10.00" fill="#000000">bit_cnt == &#39;b0 &#160;&#160;</text>
<text text-anchor="start" x="55" y="-72" font-family="Helvetica,sans-Serif" font-size="10.00" fill="#000000">time_cnt == &#39;b0 &#160;&#160;</text>
</g>
<!-- TX_STOP&#45;&gt;IDLE -->
<g id="edge4" class="edge transition">
<title>TX_STOP&#45;&gt;IDLE</title>
<path fill="none" stroke="#000000" d="M176.0834,-46.8925C204.0121,-58.5854 239.9209,-78.8273 257,-110 264.6879,-124.032 264.4942,-131.8636 257,-146 238.6392,-180.6341 184,-156.3 184,-195.5 184,-263 184,-263 184,-263 184,-271.2395 169.1732,-280.7238 153.3662,-288.4939"/>
<polygon fill="#000000" stroke="#000000" points="151.6278,-285.443 144.0508,-292.8484 154.5921,-291.7844 151.6278,-285.443"/>
<text text-anchor="start" x="236" y="-178" font-family="Helvetica,sans-Serif" font-size="10.00" fill="#000000">word_cnt == &#39;b0 &#160;&#160;</text>
<text text-anchor="start" x="236" y="-166" font-family="Helvetica,sans-Serif" font-size="10.00" fill="#000000">time_cnt == &#39;b0 &#160;&#160;</text>
</g>
<!-- TX_STOP&#45;&gt;TX_START -->
<g id="edge5" class="edge transition">
<title>TX_STOP&#45;&gt;TX_START</title>
<path fill="none" stroke="#000000" d="M143.0729,-52.3137C150.4263,-83.0026 160.3779,-145.5225 133,-187 127.1215,-195.906 118.3418,-202.5902 108.839,-207.5923"/>
<polygon fill="#000000" stroke="#000000" points="107.175,-204.5059 99.5775,-211.8903 110.1217,-210.8555 107.175,-204.5059"/>
<text text-anchor="start" x="151" y="-131" font-family="Helvetica,sans-Serif" font-size="10.00" fill="#000000">not (word_cnt == &#39;b0) &#160;&#160;</text>
<text text-anchor="start" x="151" y="-119" font-family="Helvetica,sans-Serif" font-size="10.00" fill="#000000">time_cnt == &#39;b0 &#160;&#160;</text>
</g>
</g>
</svg>
